<?xml version="1.0" standalone="no"?>
<!DOCTYPE svg PUBLIC "-//W3C//DTD SVG 20010904//EN"
 "http://www.w3.org/TR/2001/REC-SVG-20010904/DTD/svg10.dtd">
<svg version="1.0" xmlns="http://www.w3.org/2000/svg"
 width="482.000000pt" height="482.000000pt" viewBox="0 0 482.000000 482.000000"
 preserveAspectRatio="xMidYMid meet">
<metadata>
Created by potrace 1.14, written by Peter Selinger 2001-2017
</metadata>
<g transform="translate(0.000000,482.000000) scale(0.100000,-0.100000)"
fill="#000000" stroke="none">
<path d="M2242 4780 c-122 -32 -253 -110 -315 -187 -10 -13 -24 -29 -30 -36
-54 -55 -120 -204 -133 -294 -6 -45 -7 -155 -1 -268 2 -27 -3 -86 -9 -130 -48
-310 -238 -571 -520 -713 -69 -35 -197 -78 -264 -88 -25 -4 -130 -8 -235 -8
-152 -1 -202 -5 -250 -20 -352 -106 -544 -468 -435 -817 37 -120 135 -255 240
-331 242 -175 598 -151 811 55 81 79 102 106 143 192 52 107 59 155 61 380 1
180 5 221 23 288 101 369 412 649 777 701 51 7 154 12 240 10 123 -2 163 1
225 17 161 42 322 169 398 317 59 114 77 186 75 317 -2 277 -183 519 -453 606
-94 30 -251 34 -348 9z"/>
<path d="M3986 4769 c-118 -29 -207 -80 -303 -174 -66 -66 -90 -98 -123 -166
-186 -388 28 -828 451 -925 13 -3 65 -7 115 -8 480 -16 805 494 592 930 -131
269 -437 412 -732 343z"/>
<path d="M540 4760 c-183 -32 -356 -150 -450 -310 -16 -26 -41 -81 -56 -122
-23 -62 -27 -90 -28 -183 -1 -153 13 -217 77 -340 47 -89 173 -211 267 -258
126 -62 281 -88 397 -65 26 5 58 11 71 14 74 15 196 83 262 146 208 198 270
477 163 732 -114 272 -412 436 -703 386z"/>
<path d="M2285 3043 c-53 -12 -155 -49 -195 -71 -209 -115 -340 -346 -332
-587 0 -16 2 -67 5 -113 5 -105 -14 -226 -54 -336 -29 -80 -99 -210 -144 -266
-34 -42 -131 -136 -171 -166 -22 -16 -41 -32 -44 -36 -11 -14 -160 -89 -216
-108 -138 -48 -200 -55 -449 -52 -139 2 -201 -10 -307 -63 -229 -115 -363
-335 -359 -590 5 -298 214 -553 506 -619 104 -23 249 -16 345 18 199 70 340
213 410 416 21 59 23 86 25 285 2 192 5 230 24 300 98 351 360 602 726 695 32
9 129 14 265 15 195 1 221 4 280 24 283 99 458 350 445 641 -9 224 -123 416
-315 530 -104 62 -177 82 -310 85 -63 1 -124 1 -135 -2z"/>
<path d="M4007 3034 c-232 -56 -402 -215 -477 -448 -21 -64 -27 -173 -18 -331
4 -65 -12 -184 -35 -261 -100 -330 -362 -584 -687 -663 -94 -23 -150 -27 -310
-25 -129 1 -179 -2 -230 -15 -286 -76 -483 -328 -481 -616 0 -94 2 -111 25
-190 35 -117 81 -191 178 -286 152 -148 380 -211 588 -161 122 30 234 92 310
173 58 61 71 79 111 153 64 120 72 164 74 401 1 181 4 221 23 290 116 426 512
724 941 708 182 -6 233 -3 316 21 161 48 303 164 382 313 56 106 76 186 76
308 0 286 -183 532 -463 620 -72 23 -246 28 -323 9z"/>
<path d="M4060 1304 c-96 -16 -143 -33 -230 -85 -137 -81 -249 -234 -290 -396
-24 -90 -22 -256 4 -333 91 -281 318 -457 601 -466 125 -4 203 13 312 67 174
87 305 256 343 444 66 324 -118 643 -435 749 -88 30 -201 38 -305 20z"/>
</g>
</svg>
