<svg width="30" height="30" viewBox="0 0 30 30" fill="none" xmlns="http://www.w3.org/2000/svg">
<path d="M17.9707 15.5675C18.7589 14.9507 19.3342 14.105 19.6166 13.148C19.899 12.191 19.8744 11.1702 19.5463 10.2277C19.2182 9.28521 18.6028 8.46786 17.7859 7.88937C16.9689 7.31087 15.991 7 14.9881 7C13.9852 7 13.0072 7.31087 12.1903 7.88937C11.3733 8.46786 10.758 9.28521 10.4298 10.2277C10.1017 11.1702 10.0772 12.191 10.3595 13.148C10.6419 14.105 11.2172 14.9507 12.0054 15.5675C10.6548 16.1056 9.47642 16.9981 8.59578 18.1499C7.71514 19.3017 7.16529 20.6696 7.00485 22.1077C6.99324 22.2127 7.00253 22.3189 7.0322 22.4204C7.06188 22.5218 7.11135 22.6164 7.17779 22.6988C7.31197 22.8652 7.50714 22.9718 7.72037 22.9952C7.93359 23.0185 8.14739 22.9566 8.31475 22.8232C8.4821 22.6897 8.5893 22.4956 8.61275 22.2836C8.78929 20.7206 9.53865 19.2772 10.7177 18.229C11.8967 17.1807 13.4227 16.6013 15.0042 16.6013C16.5856 16.6013 18.1116 17.1807 19.2906 18.229C20.4697 19.2772 21.219 20.7206 21.3956 22.2836C21.4174 22.48 21.5117 22.6615 21.6601 22.7929C21.8086 22.9243 22.0008 22.9964 22.1995 22.9952H22.2879C22.4987 22.9711 22.6913 22.8651 22.8238 22.7003C22.9563 22.5356 23.018 22.3254 22.9954 22.1157C22.8342 20.6735 22.2814 19.3021 21.3962 18.1485C20.5111 16.995 19.3269 16.1027 17.9707 15.5675ZM14.9881 14.9998C14.3521 14.9998 13.7303 14.8122 13.2015 14.4608C12.6726 14.1094 12.2605 13.6099 12.0171 13.0255C11.7737 12.4411 11.71 11.7981 11.8341 11.1777C11.9581 10.5573 12.2644 9.98746 12.7142 9.54019C13.1639 9.09292 13.7369 8.78833 14.3607 8.66492C14.9845 8.54152 15.6311 8.60486 16.2187 8.84692C16.8063 9.08898 17.3086 9.49889 17.6619 10.0248C18.0153 10.5508 18.2039 11.1691 18.2039 11.8016C18.2039 12.6498 17.8651 13.4633 17.262 14.0631C16.6589 14.6628 15.841 14.9998 14.9881 14.9998Z" fill="white"/>
<rect x="0.75" y="0.75" width="28.5" height="28.5" rx="8.25" stroke="white" stroke-width="1.5"/>
</svg>
