<svg width="220" height="60" viewBox="0 0 220 60" fill="none" xmlns="http://www.w3.org/2000/svg">
<path d="M0 5H52.3591V58.2776H0V5Z" fill="#E436BE"/>
<path d="M64.4256 27.3526V9.56891L65.5132 10.6565H57.8706V6.77642H75.7131V10.6565H68.0705L69.1287 9.56891V27.3526H64.4256Z" fill="white"/>
<path d="M78.7031 27.3526V6.77642H88.2857C90.6765 6.77642 92.5381 7.23694 93.8707 8.15797C95.2032 9.079 95.8695 10.392 95.8695 12.0968C95.8695 13.7821 95.2424 15.0951 93.9883 16.0357C92.7341 16.9567 91.0684 17.4173 88.9912 17.4173L89.5497 16.1827C91.862 16.1827 93.6551 16.6432 94.9289 17.5642C96.2026 18.4853 96.8395 19.8178 96.8395 21.5619C96.8395 23.3648 96.1537 24.7855 94.7819 25.8241C93.4298 26.8431 91.4505 27.3526 88.8442 27.3526H78.7031ZM83.4356 23.8253H88.6678C89.7652 23.8253 90.5981 23.6097 91.1664 23.1786C91.7347 22.7475 92.0188 22.0812 92.0188 21.1798C92.0188 20.3175 91.7347 19.6806 91.1664 19.2691C90.5981 18.838 89.7652 18.6224 88.6678 18.6224H83.4356V23.8253ZM83.4356 15.3008H87.8742C88.9128 15.3008 89.6966 15.0951 90.2257 14.6836C90.7549 14.2524 91.0194 13.6254 91.0194 12.8023C91.0194 11.9793 90.7549 11.362 90.2257 10.9504C89.6966 10.5193 88.9128 10.3038 87.8742 10.3038H83.4356V15.3008Z" fill="white"/>
<path d="M110.453 27.7054C108.826 27.7054 107.317 27.4408 105.926 26.9117C104.554 26.3826 103.359 25.6379 102.34 24.6777C101.34 23.7175 100.556 22.5907 99.9882 21.2973C99.4395 20.004 99.1651 18.593 99.1651 17.0645C99.1651 15.536 99.4395 14.1251 99.9882 12.8317C100.556 11.5383 101.35 10.4116 102.369 9.45133C103.388 8.49111 104.584 7.74644 105.955 7.21734C107.327 6.68824 108.816 6.42369 110.423 6.42369C112.05 6.42369 113.539 6.68824 114.891 7.21734C116.263 7.74644 117.449 8.49111 118.448 9.45133C119.467 10.4116 120.261 11.5383 120.829 12.8317C121.397 14.1055 121.681 15.5164 121.681 17.0645C121.681 18.593 121.397 20.0138 120.829 21.3267C120.261 22.6201 119.467 23.7469 118.448 24.7071C117.449 25.6477 116.263 26.3826 114.891 26.9117C113.539 27.4408 112.06 27.7054 110.453 27.7054ZM110.423 23.6489C111.344 23.6489 112.187 23.4921 112.951 23.1786C113.735 22.865 114.421 22.4143 115.009 21.8264C115.597 21.2385 116.047 20.5429 116.361 19.7394C116.694 18.936 116.861 18.0443 116.861 17.0645C116.861 16.0847 116.694 15.1931 116.361 14.3896C116.047 13.5862 115.597 12.8905 115.009 12.3026C114.441 11.7147 113.764 11.264 112.981 10.9504C112.197 10.6369 111.344 10.4801 110.423 10.4801C109.502 10.4801 108.65 10.6369 107.866 10.9504C107.102 11.264 106.426 11.7147 105.838 12.3026C105.25 12.8905 104.789 13.5862 104.456 14.3896C104.143 15.1931 103.986 16.0847 103.986 17.0645C103.986 18.0247 104.143 18.9164 104.456 19.7394C104.789 20.5429 105.24 21.2385 105.808 21.8264C106.396 22.4143 107.082 22.865 107.866 23.1786C108.65 23.4921 109.502 23.6489 110.423 23.6489Z" fill="white"/>
<path d="M125.35 27.3526V6.77642H130.082V20.1803L139.9 6.77642H144.368V27.3526H139.665V13.9781L129.847 27.3526H125.35ZM134.844 5.45367C132.885 5.45367 131.444 5.06174 130.523 4.27789C129.622 3.49403 129.161 2.38683 129.142 0.956299H132.404C132.424 1.66177 132.63 2.20067 133.022 2.573C133.433 2.92573 134.041 3.1021 134.844 3.1021C135.628 3.1021 136.226 2.92573 136.637 2.573C137.049 2.20067 137.264 1.66177 137.284 0.956299H140.547C140.527 2.38683 140.057 3.49403 139.136 4.27789C138.215 5.06174 136.784 5.45367 134.844 5.45367Z" fill="white"/>
<path d="M63.905 37.7598V58.7553H58.7893V37.7598H63.905ZM72.1543 46.4983V50.3917H62.4476V46.4983H72.1543ZM72.9851 37.7598V41.6676H62.4476V37.7598H72.9851Z" fill="white"/>
<path d="M75.113 37.7598H83.4643C85.0966 37.7598 86.5153 38.0002 87.7201 38.4808C88.9249 38.9615 89.8529 39.6729 90.5039 40.615C91.1646 41.5571 91.4949 42.7203 91.4949 44.1046C91.4949 45.3063 91.3055 46.3109 90.9265 47.1184C90.5476 47.9259 90.018 48.594 89.3379 49.1228C88.6674 49.6419 87.8853 50.0697 86.9914 50.4061L85.3153 51.3434H78.3048L78.2757 47.4356H83.4643C84.1153 47.4356 84.6545 47.3203 85.0821 47.0895C85.5096 46.8588 85.8302 46.532 86.044 46.109C86.2675 45.6764 86.3792 45.1621 86.3792 44.5661C86.3792 43.9604 86.2675 43.4413 86.044 43.0087C85.8205 42.5761 85.4902 42.2444 85.0529 42.0137C84.6254 41.783 84.0958 41.6676 83.4643 41.6676H80.2287V58.7553H75.113V37.7598ZM86.729 58.7553L82.036 49.4688L87.4577 49.44L92.2091 58.539V58.7553H86.729Z" fill="white"/>
<path d="M109.189 54.8619V58.7553H97.8787V54.8619H109.189ZM99.7005 37.7598V58.7553H94.5848V37.7598H99.7005ZM107.731 46.0946V49.8582H97.8787V46.0946H107.731ZM109.232 37.7598V41.6676H97.8787V37.7598H109.232Z" fill="white"/>
<path d="M125.891 54.8619V58.7553H114.581V54.8619H125.891ZM116.403 37.7598V58.7553H111.287V37.7598H116.403ZM124.434 46.0946V49.8582H114.581V46.0946H124.434ZM125.935 37.7598V41.6676H114.581V37.7598H125.935Z" fill="white"/>
<path d="M142.011 54.8619V58.7553H131.284V54.8619H142.011ZM133.106 37.7598V58.7553H127.99V37.7598H133.106Z" fill="white"/>
<path d="M153.452 42.1723L148.278 58.7553H142.783L150.581 37.7598H154.064L153.452 42.1723ZM157.737 58.7553L152.548 42.1723L151.878 37.7598H155.405L163.246 58.7553H157.737ZM157.533 50.9252V54.833H146.646V50.9252H157.533Z" fill="white"/>
<path d="M182.529 37.7598V58.7553H177.427L169.921 45.6908V58.7553H164.806V37.7598H169.921L177.427 50.8243V37.7598H182.529Z" fill="white"/>
<path d="M197.832 51.6462H202.933C202.865 53.1075 202.467 54.3956 201.738 55.5108C201.009 56.6259 199.999 57.4959 198.706 58.1208C197.424 58.736 195.908 59.0437 194.159 59.0437C192.741 59.0437 191.473 58.8081 190.355 58.3371C189.247 57.866 188.305 57.1883 187.528 56.3039C186.76 55.4195 186.172 54.3476 185.764 53.0882C185.366 51.8289 185.167 50.4109 185.167 48.8344V47.6952C185.167 46.1186 185.375 44.7006 185.793 43.4413C186.221 42.1723 186.823 41.0957 187.601 40.2112C188.388 39.3172 189.33 38.6347 190.428 38.1636C191.526 37.6926 192.745 37.457 194.086 37.457C195.932 37.457 197.492 37.7839 198.765 38.4376C200.038 39.0913 201.024 39.9901 201.723 41.1341C202.423 42.2685 202.836 43.5615 202.962 45.0131H197.861C197.842 44.2248 197.706 43.5663 197.453 43.0375C197.2 42.4992 196.802 42.0954 196.258 41.8263C195.714 41.5571 194.99 41.4225 194.086 41.4225C193.455 41.4225 192.906 41.5379 192.439 41.7686C191.973 41.9993 191.584 42.3646 191.273 42.8645C190.962 43.3644 190.729 44.0133 190.574 44.8112C190.428 45.5995 190.355 46.5512 190.355 47.6663V48.8344C190.355 49.9495 190.423 50.9012 190.559 51.6895C190.695 52.4778 190.914 53.1219 191.215 53.6218C191.516 54.1217 191.905 54.4918 192.381 54.7321C192.867 54.9628 193.46 55.0782 194.159 55.0782C194.936 55.0782 195.592 54.958 196.127 54.7177C196.661 54.4677 197.074 54.0928 197.366 53.5929C197.657 53.0834 197.813 52.4345 197.832 51.6462Z" fill="white"/>
<path d="M219.956 54.8619V58.7553H208.646V54.8619H219.956ZM210.468 37.7598V58.7553H205.353V37.7598H210.468ZM218.499 46.0946V49.8582H208.646V46.0946H218.499ZM220 37.7598V41.6676H208.646V37.7598H220Z" fill="white"/>
<path d="M29.263 13.574V50.7765H22.5051V13.574L29.263 13.574ZM43.4633 29.6951V34.6554H28.4759V29.6951H43.4633ZM45.9289 13.574V19.7744H28.0529L29.263 13.574H45.9289Z" fill="black"/>
<path d="M5.052 13.574H19.7493V19.5447H5.052V13.574Z" fill="black"/>
</svg>
