<?xml version="1.0" encoding="utf-8"?>
<!-- Generator: Adobe Illustrator 24.1.2, SVG Export Plug-In . SVG Version: 6.00 Build 0)  -->
<svg version="1.1"
	 id="svg2" xmlns:cc="http://creativecommons.org/ns#" xmlns:dc="http://purl.org/dc/elements/1.1/" xmlns:rdf="http://www.w3.org/1999/02/22-rdf-syntax-ns#" xmlns:svg="http://www.w3.org/2000/svg"
	 xmlns="http://www.w3.org/2000/svg" xmlns:xlink="http://www.w3.org/1999/xlink" x="0px" y="0px" viewBox="0 0 738 239"
	 style="enable-background:new 0 0 738 239;" xml:space="preserve">
<style type="text/css">
	.st0{fill:#E436BE;}
	.st1{fill:#FFFFFF;}
</style>
<g id="g10" transform="matrix(1.3333333,0,0,-1.3333333,0,1066.6667)">
	<g id="g12" transform="scale(0.1)">
		<path id="path16" class="st0" d="M1596.5,6466.9c-42,0-81.6,16.4-111.2,46.1c-29.8,29.7-46.1,69.2-46.1,111.2
			c0,42,16.4,81.5,46,111.1c29.7,29.7,69.2,46.1,111.3,46.1c42,0,81.5-16.3,111.2-46c61.3-61.3,61.3-161.1,0-222.5
			C1677.9,6483.3,1638.4,6466.9,1596.5,6466.9"/>
		<path id="path18" class="st0" d="M742.2,7305.4c-42,0-81.5,16.4-111.3,46.1c-29.7,29.7-46.1,69.1-46.1,111.2
			c0,42,16.3,81.5,46,111.1c29.8,29.7,69.3,46.1,111.3,46.1c42,0,81.5-16.4,111.1-46c29.7-29.7,46.1-69.2,46.1-111.2
			c0-42-16.4-81.5-46.1-111.2C823.7,7321.8,784.2,7305.4,742.2,7305.4"/>
		<path id="path20" class="st0" d="M1589.4,7310c-42.1,0-81.5,16.4-111.2,46.1c-61.3,61.3-61.3,161.1-0.1,222.3
			c29.7,29.7,69.2,46.1,111.3,46.1c42,0,81.5-16.4,111.2-46.1c61.3-61.3,61.3-161.1,0-222.5C1670.9,7326.4,1631.4,7310,1589.4,7310"
			/>
		<path id="path22" class="st0" d="M746.3,6466.9c-42,0-81.5,16.4-111.3,46.1c-29.7,29.7-46,69.2-46,111.2
			c0,42,16.4,81.5,46.1,111.2c6.2,6.3,13.2,12,22.2,18c2.7,1.9,5.2,3.4,7.7,4.9c5.8,3.3,11.6,6.4,17,8.9c2.9,1.3,6,2.7,9.2,3.9
			c5.7,2.1,12,4,19.2,5.7c1.4,0.4,2.7,0.7,4,1.1c0.8,0.2,1.6,0.5,2.4,0.7l35,2.4c4.4-0.2,9.2-0.8,14.3-1.4l2-0.3
			c1.2-0.1,2.8-0.3,4.4-0.4l1.4-0.1l1.6-0.3h1.4c2.6-0.1,5.1-0.1,7.7-0.1c60.4,0,119.9,25.7,163.4,70.5
			c43.3,44.6,67.2,104.6,65.5,164.6l0,1.8l-0.3,1.9c-0.3,1.7-0.4,3.4-0.5,5.1c-0.1,2-0.3,4-0.6,6l-0.4,3.5c-0.3,3-0.7,6-0.9,9
			l2.7,35.1c0.2,0.9,0.5,1.7,0.7,2.5l0.6,2.2c1.6,6.6,3.3,13.3,5.9,19.8c1.3,3.7,2.5,6.4,3.9,9.2c2.8,6.1,5.7,11.7,9.1,17.5
			c1.5,2.5,2.9,5,4.6,7.4c6.4,9.3,12.1,16.3,18.1,22.3c29.7,29.7,69.2,46,111.3,46c42,0,81.5-16.3,111.3-46
			c61.2-61.3,61.2-161.1-0.1-222.4c-6.2-6.2-13.2-11.9-22.2-18c-2.6-1.8-5.1-3.3-7.6-4.7c-5.6-3.4-11.4-6.4-17-9
			c-3.1-1.4-6.1-2.8-9.1-3.9c-6-2.2-12.4-4.1-19.1-5.6l-3.8-1.1c-0.9-0.2-1.7-0.5-2.5-0.7l-35.4-2.5c-4.1,0.2-8.5,0.7-13.1,1.3
			l-3.1,0.4c-1.1,0.2-2.7,0.3-4.4,0.4l-1.3,0.1l-1.8,0.4h-1.4c-2.6,0.1-5.1,0.1-7.7,0.1c-60.3,0-119.9-25.7-163.4-70.5
			c-43.4-44.6-67.2-104.6-65.5-164.6l0.1-1.8l0.3-1.8c0.3-1.7,0.4-3.4,0.5-5.1c0.1-2,0.3-4,0.6-6c0.1-1.2,0.3-3.4,0.6-5.5
			c0.3-2.4,0.6-4.8,0.6-7.2v-0.9l-2.5-33.7c-0.2-0.7-1.3-4.6-1.6-5.8c-1.7-7.3-3.6-13.7-5.8-19.5c-1.2-3.2-2.4-6-3.8-8.9
			c-2.7-6-5.7-11.7-9.1-17.5c-1.5-2.4-3.2-5.2-5-7.9c-5.9-8.5-11.6-15.6-17.9-21.9C827.8,6483.3,788.3,6466.9,746.3,6466.9
			L746.3,6466.9"/>
		<path id="path24" class="st0" d="M1171,6466.9c-42.1,0-81.6,16.4-111.3,46.1c-29.7,29.7-46,69.1-46.1,111.2
			c0,42,16.3,81.4,46,111.1c6.1,6.1,12.9,11.7,22.3,18.2c2.3,1.6,4.8,3.1,7.5,4.6c5.8,3.5,11.3,6.4,17.1,9c3.1,1.4,6.1,2.8,9.1,3.9
			c5.8,2.1,12.2,4,18.9,5.5c0,0,5.5,1.6,6.2,1.8l35.6,2.6c4.2-0.2,8.7-0.8,13.4-1.4l2.6-0.4c1.8-0.2,3.2-0.3,4.7-0.3
			c0.6-0.1,1.2-0.1,1.7-0.1l1.1-0.2l1.5-0.1c2.6-0.1,5.2-0.1,7.9-0.1c60.2,0,119.7,25.7,163.1,70.4c43.3,44.6,67.2,104.6,65.5,164.6
			l-0.2,7.3l-0.6,0.8c0,0.3,0,0.5-0.1,0.8c-0.1,1.7-0.2,3.4-0.4,5.2l-0.6,5c-0.3,2.8-0.7,5.5-0.8,8.3l2.4,34c0.2,0.8,1.4,5,1.7,6.3
			c2,8.1,3.8,14.1,5.8,19.4c1.1,3.2,2.5,6.1,3.9,9.1c2.5,5.5,5.5,11.1,9.1,17.2l0.7,1.1c1.2,2.1,2.4,4.1,3.8,6.1
			c6.4,9.4,12.2,16.5,18.2,22.5c29.7,29.7,69.3,46.1,111.3,46.1c42,0,81.5-16.3,111.2-46c61.3-61.3,61.3-161.1,0-222.5
			c-5.9-5.9-13-11.6-22.3-18c-1.8-1.2-3.5-2.2-5.2-3.3l-2.8-1.7c-5.3-3.1-11-6.1-16.6-8.7c-3.1-1.4-6.1-2.8-9.2-3.9
			c-5.5-2.1-11.6-3.8-19.2-5.7c-1.5-0.4-2.8-0.8-4-1.1c-0.9-0.2-1.7-0.5-2.5-0.7l-34.9-2.4c-5.1,0.2-10.6,1-16,1.7
			c-1.8,0.2-3.2,0.3-4.6,0.4c-0.5,0-1.1,0-1.6,0.1l-3,0.3c-2.6,0.1-5.2,0.1-7.8,0.1c-60.3,0-119.7-25.7-163.2-70.4
			c-43.3-44.6-67.2-104.6-65.4-164.7l0.1-1.8l0.3-1.7c0.3-1.8,0.4-3.6,0.5-5.4c0.1-1.9,0.3-3.7,0.5-5.4c0.1-1.5,0.3-3.4,0.5-5.2
			c0.3-2.7,0.6-5.3,0.7-8l-2.6-34.5c-0.2-0.8-1.5-5.4-1.5-5.4c-1.7-7.3-3.6-13.7-5.8-19.7c-1.1-2.8-2.3-5.5-3.6-8.4l-0.4-1
			c-2.6-5.6-5.5-11.2-8.8-16.6c-1.6-2.7-3.2-5.3-4.9-7.8c-6.2-8.9-12-16-18.2-22.3C1252.3,6483.3,1212.9,6466.9,1171,6466.9
			L1171,6466.9"/>
		<path id="path26" class="st0" d="M746.4,6891.5c-42,0-81.5,16.3-111.2,46c-29.7,29.7-46.1,69.2-46.1,111.3
			c0,42,16.3,81.4,46,111.1c6.1,6.1,13.2,11.8,22.3,18.1c2.4,1.6,5.1,3.2,7.7,4.9c5.4,3.2,11,6.2,16.9,8.9c3,1.4,6.1,2.8,9.3,4
			c5.8,2.1,12.2,4,18.8,5.5l4,1.1c0.7,0.2,1.4,0.5,2.2,0.6l35.6,2.6c4.6-0.2,9.6-0.9,14.8-1.5l1.1-0.1c1.8-0.2,3.2-0.3,4.7-0.3
			c0.5,0,1,0,1.5-0.1l1.5-0.3l1.4-0.1c2.6-0.1,5.2-0.1,7.8-0.1c60.2,0,119.7,25.6,163.1,70.4c43.3,44.6,67.2,104.6,65.4,164.7
			l-0.1,1.7l-0.3,1.7c-0.4,1.9-0.4,3.8-0.5,5.8c-0.1,1.6-0.2,3.2-0.4,4.8l-0.5,4.9c-0.4,2.9-0.7,5.8-0.8,8.7l2.4,33l0.2,0.8v0.6
			c0.2,0.8,1.5,5.1,1.5,5.1c2,8.5,3.8,14.6,5.8,20c1.1,3,2.5,5.9,3.9,9c2.6,5.6,5.6,11.4,9,17.2l0.5,0.9c1.4,2.3,2.7,4.5,4.2,6.8
			c6.2,9,12,16.1,17.9,22.1c29.7,29.7,69.2,46.1,111.3,46.1c42,0,81.5-16.4,111.2-46c61.3-61.3,61.2-161.1-0.1-222.4
			c-6.1-6.1-13.3-12-22.1-18c-2.4-1.7-4.5-2.9-6.6-4.2l-1.2-0.7c-5.8-3.4-11.5-6.4-16.8-8.9c-3.2-1.5-6.1-2.8-9.2-3.9
			c-5.9-2.2-12.2-4-19.2-5.7c-1.5-0.4-2.8-0.8-4.2-1.1c-0.8-0.2-1.6-0.5-2.5-0.7l-34.9-2.4c-4.4,0.2-9.1,0.8-14.1,1.4l-2.1,0.3
			c-1.6,0.2-3.1,0.3-4.5,0.4c-0.6,0-1.2,0-1.8,0.1l-1.2,0.1l-1.5,0.1c-2.6,0.1-5.2,0.1-7.8,0.1c-60.2,0-119.7-25.6-163.1-70.4
			c-43.3-44.6-67.2-104.6-65.5-164.7l0.1-1.8l0.3-1.7c0.4-1.8,0.4-3.6,0.6-5.4c0.1-1.8,0.3-3.6,0.5-5.5c0.1-1.5,0.4-3.3,0.6-5.2
			c0.3-2.6,0.6-5.2,0.7-7.8l-2.5-34.3c-0.2-0.9-0.5-1.8-0.8-2.7l-0.9-3.1c-1.8-7.7-3.6-14.1-5.7-19.7c-1.1-3-2.6-6-4-9.2
			c-2.6-5.6-5.5-11.2-8.9-16.9c-1.6-2.7-3.1-5.3-4.8-7.7c-6.4-9.4-12-16.2-18.1-22.2C827.8,6907.8,788.3,6891.5,746.4,6891.5
			L746.4,6891.5"/>
		<path id="path28" class="st1" d="M2035.5,7177.7h-114v80.2H2246v-80.2h-115.3v-342.1h-95.2V7177.7"/>
		<path id="path30" class="st1" d="M2548,7014.2h-155.4v-100.3h173.5v-78.3h-268.8v422.3h260v-78.3h-164.8v-87.7H2548L2548,7014.2"
			/>
		<path id="path32" class="st1" d="M2940.7,6846.9c-16.9-8.1-57-18.2-107.8-18.2c-146,0-221.2,91.5-221.2,211.8
			c0,144.1,102.8,223.6,230.6,223.6c49.5,0,87.1-9.4,104-18.8l-20-75.2c-18.8,8.1-45.7,15.7-80.2,15.7
			c-75.2,0-134.1-45.7-134.1-139.7c0-84.6,50.1-137.8,134.7-137.8c29.5,0,60.8,5.6,80.2,13.8L2940.7,6846.9"/>
		<path id="path34" class="st1" d="M3099.8,7257.9v-162.3H3257v162.3h95.2v-422.3H3257v176.7h-157.3v-176.7h-95.2v422.3H3099.8"/>
		<path id="path36" class="st1" d="M3441.2,7257.9h55.1v-376.5h180.4v-45.7h-235.5V7257.9"/>
		<path id="path38" class="st1" d="M3745.6,7044.9c0-90.9,48.9-171.7,135.3-171.7c86.5,0,135.3,79.6,135.3,175.4
			c0,84.6-43.9,172.3-134.7,172.3C3790.7,7220.9,3745.6,7137,3745.6,7044.9L3745.6,7044.9z M4073.9,7051.1
			c0-144.7-88.3-222.4-196.1-222.4c-112.1,0-189.8,87.1-189.8,214.9c0,134.1,82.7,221.8,195.5,221.8
			C3999.3,7265.4,4073.9,7177.1,4073.9,7051.1"/>
		<path id="path40" class="st1" d="M4466.6,6854.4c-24.4-9.4-73.3-23.2-130.3-23.2c-63.9,0-116.5,16.3-157.9,55.8
			c-36.3,35.1-58.9,91.5-58.9,157.2c0,125.9,87.1,218,228.7,218c48.9,0,87.7-10.6,105.9-19.4l-13.8-44.5
			c-22.6,10.7-50.8,18.2-93.3,18.2c-102.7,0-169.8-63.9-169.8-169.8c0-107.1,63.9-170.4,162.9-170.4c35.7,0,60.1,5,72.7,11.3v125.9
			h-85.2v43.9h139.1L4466.6,6854.4"/>
		<path id="path42" class="st1" d="M4581.8,7044.9c0-90.9,48.9-171.7,135.3-171.7c86.5,0,135.3,79.6,135.3,175.4
			c0,84.6-43.9,172.3-134.7,172.3C4626.9,7220.9,4581.8,7137,4581.8,7044.9z M4910.1,7051.1c0-144.7-88.3-222.4-196.1-222.4
			c-112.1,0-189.8,87.1-189.8,214.9c0,134.1,82.7,221.8,195.5,221.8C4835.5,7265.4,4910.1,7177.1,4910.1,7051.1"/>
	</g>
</g>
</svg>
